<svg width="119" height="165" viewBox="0 0 119 165" fill="none" xmlns="http://www.w3.org/2000/svg">
<circle cx="59.5" cy="59.5" r="59.5" fill="#5A708C"/>
<path d="M57.52 88.26V70.976C57.52 68.424 55.896 67.38 53.692 68.772L38.612 77.356L36.64 73.876L51.604 65.292C53.808 63.9 53.808 62.16 51.604 60.768L36.64 52.068L38.612 48.704L53.692 57.288C55.896 58.68 57.52 57.636 57.52 55.084V37.8H61.464V55.084C61.464 57.636 63.088 58.68 65.408 57.288L80.372 48.704L82.344 52.068L67.38 60.768C65.06 62.16 65.06 63.9 67.38 65.292L82.344 73.876L80.372 77.356L65.408 68.772C63.088 67.38 61.464 68.424 61.464 70.976V88.26H57.52Z" fill="white"/>
</svg>
